<svg xmlns="http://www.w3.org/2000/svg" xmlns:xlink="http://www.w3.org/1999/xlink" width="25" height="25" viewBox="0 0 25 25"><defs><linearGradient id="a"><stop offset="0" stop-color="#ff1679"/><stop offset="1" stop-color="#ff770b"/></linearGradient><linearGradient id="b" x1="992.183" x2="1019.298" y1="516.081" y2="545.959" gradientTransform="translate(-793.076 614.331) scale(.80097)" gradientUnits="userSpaceOnUse" xlink:href="#a"/></defs><g transform="translate(0 -1027.362)"><rect width="25" height="25" y="1027.362" fill="url(#b)" rx="5.283" ry="5.283"/><path fill="#fff" style="text-indent:0;text-align:start;line-height:normal;text-transform:none;block-progression:tb" d="m 12.5,1033.3622 c -3.5923512,0 -6.4999999,2.9076 -6.5,6.5 l 0,1 0,2.5 0,2.5 a 0.50005,0.50005 0 0 0 0.5,0.5 l 2,0 c 0.4529938,0 0.8622955,-0.1712 1.125,-0.4687 0.2627045,-0.2976 0.375,-0.6839 0.375,-1.0625 l 0,-2.9688 c 0,-0.3654 -0.1110173,-0.7171 -0.34375,-1 -0.2327327,-0.2828 -0.6118733,-0.5 -1.03125,-0.5 l -1.625,0 0,-0.5 c 0,-3.0557 2.4443515,-5.5 5.5,-5.5 3.055649,0 5.5,2.4443 5.5,5.5 l 0,0.5 -1.625,0 c -0.419376,0 -0.798517,0.2172 -1.03125,0.5 -0.232733,0.2829 -0.34375,0.6346 -0.34375,1 l 0,2.9688 c 0,0.3786 0.112296,0.7649 0.375,1.0625 0.262704,0.2975 0.672006,0.4687 1.125,0.4687 l 2,0 a 0.50005,0.50005 0 0 0 0.5,-0.5 l 0,-2.375 a 0.50005,0.50005 0 0 0 0,-0.031 l 0,-2.5938 0,-1 c 0,-3.5924 -2.907649,-6.5 -6.5,-6.5 z m -5.5,8 1.625,0 c 0.1101974,0 0.1776264,0.068 0.25,0.1563 0.072374,0.088 0.125,0.2081 0.125,0.3437 l 0,2.9688 c 0,0.1877 -0.056613,0.3287 -0.125,0.4062 -0.068386,0.077 -0.1523567,0.125 -0.375,0.125 l -1.5,0 0,-1.9687 a 0.50005,0.50005 0 0 0 0,-0.031 l 0,-2 z m 9.375,0 1.625,0 0,2.0938 0,1.9062 -1.5,0 c -0.222643,0 -0.306614,-0.047 -0.375,-0.125 -0.06839,-0.077 -0.125,-0.2185 -0.125,-0.4062 l 0,-2.9688 c 0,-0.1356 0.05263,-0.2558 0.125,-0.3437 0.07237,-0.088 0.139803,-0.1563 0.25,-0.1563 z" color="#000" font-family="sans-serif" font-weight="400" overflow="visible"/></g></svg>